<svg version="1.2" xmlns="http://www.w3.org/2000/svg" viewBox="0 0 902 818" width="902" height="818">
	<title>about1-svg</title>
	<defs>
		<radialGradient id="g1" cx="691.9" cy="232.2" r="143.6" gradientUnits="userSpaceOnUse">
			<stop offset="0" stop-color="#fefefe"/>
			<stop offset=".6" stop-color="#bfe0f5"/>
			<stop offset="1" stop-color="#0a0b0b"/>
		</radialGradient>
		<radialGradient id="g2" cx="599.3" cy="578.4" r="115.7" gradientUnits="userSpaceOnUse">
			<stop offset="0" stop-color="#fefefe"/>
			<stop offset=".6" stop-color="#bfe0f5"/>
			<stop offset="1" stop-color="#0a0b0b"/>
		</radialGradient>
		<radialGradient id="g3" cx="456.9" cy="139.4" r="136.1" gradientUnits="userSpaceOnUse">
			<stop offset="0" stop-color="#fefefe"/>
			<stop offset=".6" stop-color="#bfe0f5"/>
			<stop offset="1" stop-color="#0a0b0b"/>
		</radialGradient>
		<radialGradient id="g4" cx="200.4" cy="232.4" r="105.3" gradientUnits="userSpaceOnUse">
			<stop offset="0" stop-color="#fefefe"/>
			<stop offset=".6" stop-color="#bfe0f5"/>
			<stop offset="1" stop-color="#0a0b0b"/>
		</radialGradient>
		<radialGradient id="g5" cx="544.3" cy="427.3" r="87.2" gradientUnits="userSpaceOnUse">
			<stop offset="0" stop-color="#fefefe"/>
			<stop offset=".6" stop-color="#bfe0f5"/>
			<stop offset="1" stop-color="#0a0b0b"/>
		</radialGradient>
		<radialGradient id="g6" cx="222.5" cy="499.8" r="155.7" gradientUnits="userSpaceOnUse">
			<stop offset="0" stop-color="#fefefe"/>
			<stop offset=".6" stop-color="#bfe0f5"/>
			<stop offset="1" stop-color="#0a0b0b"/>
		</radialGradient>
		<radialGradient id="g7" cx="342.2" cy="647" r="93.4" gradientUnits="userSpaceOnUse">
			<stop offset="0" stop-color="#fefefe"/>
			<stop offset=".6" stop-color="#bfe0f5"/>
			<stop offset="1" stop-color="#0a0b0b"/>
		</radialGradient>
		<linearGradient id="g8" x1="1097.1" y1="-51.5" x2="1245.3" y2="507.7" gradientUnits="userSpaceOnUse">
			<stop offset="0" stop-color="#4bbdeb" stop-opacity=".2"/>
			<stop offset="1" stop-color="#6da8da" stop-opacity=".4"/>
		</linearGradient>
		<linearGradient id="g9" x1="1082.8" y1="-60" x2="1256.4" y2="421.4" gradientUnits="userSpaceOnUse">
			<stop offset="0" stop-color="#4bbdeb" stop-opacity=".2"/>
			<stop offset="1" stop-color="#6da8da" stop-opacity=".4"/>
		</linearGradient>
		<linearGradient id="g10" x1="305.5" y1="26.2" x2="779.7" y2="150.3" gradientUnits="userSpaceOnUse">
			<stop offset="0" stop-color="#66cdf1"/>
			<stop offset="1" stop-color="#eabfd9"/>
		</linearGradient>
		<linearGradient id="g11" x1="354.1" y1="393.8" x2="400.2" y2="294.2" gradientUnits="userSpaceOnUse">
			<stop offset="0" stop-color="#c5b6d9"/>
			<stop offset="1" stop-color="#a0cfee"/>
		</linearGradient>
		<linearGradient id="g12" x1="193.2" y1="611.2" x2="228.1" y2="20.6" gradientUnits="userSpaceOnUse">
			<stop offset="0" stop-color="#fefefe" stop-opacity="0"/>
			<stop offset="1" stop-color="#fefefe" stop-opacity=".4"/>
		</linearGradient>
		<linearGradient id="g13" x1="345.3" y1="190.1" x2="395.2" y2="195" gradientUnits="userSpaceOnUse">
			<stop offset="0" stop-color="#4e54a4"/>
			<stop offset="1" stop-color="#4094cf"/>
		</linearGradient>
		<linearGradient id="g14" x1="799.7" y1="427.1" x2="762.9" y2="491.1" gradientUnits="userSpaceOnUse">
			<stop offset=".2" stop-color="#fefefe" stop-opacity="0"/>
			<stop offset="1" stop-color="#fefefe"/>
		</linearGradient>
		<linearGradient id="g15" x1="152.8" y1="540.2" x2="116" y2="604" gradientUnits="userSpaceOnUse">
			<stop offset=".2" stop-color="#fefefe" stop-opacity="0"/>
			<stop offset="1" stop-color="#fefefe"/>
		</linearGradient>
		<linearGradient id="g16" x1="662" y1="142.6" x2="625.1" y2="206.5" gradientUnits="userSpaceOnUse">
			<stop offset=".2" stop-color="#fefefe" stop-opacity="0"/>
			<stop offset="1" stop-color="#fefefe"/>
		</linearGradient>
		<linearGradient id="g17" x1="445.8" y1="705.8" x2="408.9" y2="769.7" gradientUnits="userSpaceOnUse">
			<stop offset=".2" stop-color="#fefefe" stop-opacity="0"/>
			<stop offset="1" stop-color="#fefefe"/>
		</linearGradient>
		<radialGradient id="g18" cx="780.8" cy="734.8" r="21.4" gradientUnits="userSpaceOnUse">
			<stop offset=".1" stop-color="#f6f071"/>
			<stop offset="1" stop-color="#f68f2c"/>
		</radialGradient>
		<radialGradient id="g19" cx="188" cy="276.2" r="21.4" gradientUnits="userSpaceOnUse">
			<stop offset=".1" stop-color="#6bcbdd"/>
			<stop offset=".9" stop-color="#427cbf"/>
		</radialGradient>
		<radialGradient id="g20" cx="224.2" cy="783.9" r="10.4" gradientUnits="userSpaceOnUse">
			<stop offset=".1" stop-color="#6bcbdd"/>
			<stop offset=".9" stop-color="#427cbf"/>
		</radialGradient>
		<radialGradient id="g21" cx="590.4" cy="359.2" r="9.1" gradientUnits="userSpaceOnUse">
			<stop offset=".1" stop-color="#f6f071"/>
			<stop offset="1" stop-color="#f68f2c"/>
		</radialGradient>
		<radialGradient id="g22" cx="274.7" cy="596.2" r="9.1" gradientUnits="userSpaceOnUse">
			<stop offset=".1" stop-color="#f6f071"/>
			<stop offset="1" stop-color="#f68f2c"/>
		</radialGradient>
		<radialGradient id="g23" cx="318.6" cy="620.4" r="21.4" gradientUnits="userSpaceOnUse">
			<stop offset=".1" stop-color="#f6f071"/>
			<stop offset="1" stop-color="#f68f2c"/>
		</radialGradient>
		<linearGradient id="g24" x1="163.2" y1="376.7" x2="260.2" y2="371.7" gradientUnits="userSpaceOnUse">
			<stop offset="0" stop-color="#a2ddf5"/>
			<stop offset=".5" stop-color="#65b2e2"/>
			<stop offset="1" stop-color="#b0dff7"/>
		</linearGradient>
		<linearGradient id="g25" x1="142.7" y1="457.2" x2="200.9" y2="464.8" gradientUnits="userSpaceOnUse">
			<stop offset="0" stop-color="#a2ddf5"/>
			<stop offset=".5" stop-color="#65b2e2"/>
			<stop offset="1" stop-color="#b0dff7"/>
		</linearGradient>
		<linearGradient id="g26" x1="203.8" y1="467.4" x2="267.6" y2="475.6" gradientUnits="userSpaceOnUse">
			<stop offset="0" stop-color="#a2ddf5"/>
			<stop offset=".5" stop-color="#65b2e2"/>
			<stop offset="1" stop-color="#b0dff7"/>
		</linearGradient>
		<linearGradient id="g27" x1="626.8" y1="667" x2="720.9" y2="639" gradientUnits="userSpaceOnUse">
			<stop offset="0" stop-color="#a2ddf5"/>
			<stop offset=".5" stop-color="#65b2e2"/>
			<stop offset="1" stop-color="#b0dff7"/>
		</linearGradient>
		<linearGradient id="g28" x1="753.6" y1="62.5" x2="850.9" y2="186.2" gradientUnits="userSpaceOnUse">
			<stop offset="0" stop-color="#773193"/>
			<stop offset=".5" stop-color="#512d8e"/>
			<stop offset="1" stop-color="#632c90"/>
		</linearGradient>
		<linearGradient id="g29" x1="619.6" y1="172.4" x2="732.9" y2="83.3" gradientUnits="userSpaceOnUse">
			<stop offset="0" stop-color="#fbba41"/>
			<stop offset=".4" stop-color="#ef4a74"/>
			<stop offset=".7" stop-color="#d62993"/>
			<stop offset="1" stop-color="#8e3e98"/>
		</linearGradient>
		<linearGradient id="g30" x1="237.8" y1="218.7" x2="88.5" y2="129.8" gradientUnits="userSpaceOnUse">
			<stop offset="0" stop-color="#da1f2a"/>
			<stop offset=".5" stop-color="#981b2a"/>
			<stop offset="1" stop-color="#da1f2a"/>
		</linearGradient>
		<linearGradient id="g31" x1="209.8" y1="817.5" x2="-1.5" y2="729.9" gradientUnits="userSpaceOnUse">
			<stop offset="0" stop-color="#3c67b1"/>
			<stop offset=".5" stop-color="#285aa8"/>
			<stop offset="1" stop-color="#3a68b2"/>
		</linearGradient>
		<linearGradient id="g32" x1="590.7" y1="-64.9" x2="688.1" y2="117.2" gradientUnits="userSpaceOnUse">
			<stop offset="0" stop-color="#a2ddf5"/>
			<stop offset=".5" stop-color="#65b2e2"/>
			<stop offset="1" stop-color="#b0dff7"/>
		</linearGradient>
		<linearGradient id="g33" x1="619.8" y1="402.6" x2="694.5" y2="428.9" gradientUnits="userSpaceOnUse">
			<stop offset="0" stop-color="#a2ddf5"/>
			<stop offset=".5" stop-color="#65b2e2"/>
			<stop offset="1" stop-color="#b0dff7"/>
		</linearGradient>
		<linearGradient id="g34" x1="831.4" y1="428.1" x2="901" y2="621.2" gradientUnits="userSpaceOnUse">
			<stop offset="0" stop-color="#39a7dd"/>
			<stop offset=".5" stop-color="#2f92cf"/>
			<stop offset="1" stop-color="#39a7dd"/>
		</linearGradient>
		<linearGradient id="g35" x1="13.9" y1="395.3" x2="112.7" y2="422.2" gradientUnits="userSpaceOnUse">
			<stop offset="0" stop-color="#a11c2b"/>
			<stop offset="1" stop-color="#6a0f27"/>
		</linearGradient>
		<linearGradient id="g36" x1="652.7" y1="339.7" x2="638.8" y2="277.4" gradientUnits="userSpaceOnUse">
			<stop offset="0" stop-color="#a11c2b"/>
			<stop offset="1" stop-color="#6a0f27"/>
		</linearGradient>
		<linearGradient id="g37" x1="895.6" y1="244.2" x2="938.7" y2="448.8" gradientUnits="userSpaceOnUse">
			<stop offset="0" stop-color="#3664af"/>
			<stop offset=".5" stop-color="#284da1"/>
			<stop offset="1" stop-color="#3664af"/>
		</linearGradient>
		<linearGradient id="g38" x1="124.8" y1="290.5" x2="28.4" y2="309.9" gradientUnits="userSpaceOnUse">
			<stop offset=".4" stop-color="#ea8e22"/>
			<stop offset="1" stop-color="#fdc00e"/>
		</linearGradient>
	</defs>
	<style>
		.s0 { mix-blend-mode: screen;fill: url(#g1) } 
		.s1 { mix-blend-mode: screen;fill: url(#g2) } 
		.s2 { mix-blend-mode: screen;fill: url(#g3) } 
		.s3 { mix-blend-mode: screen;fill: url(#g4) } 
		.s4 { mix-blend-mode: screen;fill: url(#g5) } 
		.s5 { mix-blend-mode: screen;fill: url(#g6) } 
		.s6 { mix-blend-mode: screen;fill: url(#g7) } 
		.s7 { fill: #ffffff } 
		.s8 { fill: #0537a5 } 
		.s9 { fill: url(#g8) } 
		.s10 { fill: url(#g9) } 
		.s11 { fill: url(#g10) } 
		.s12 { opacity: .3;fill: #ffffff } 
		.s13 { fill: url(#g11) } 
		.s14 { fill: url(#g12) } 
		.s15 { fill: url(#g13) } 
		.s16 { fill: url(#g14) } 
		.s17 { fill: url(#g15) } 
		.s18 { fill: #97ffff } 
		.s19 { fill: url(#g16) } 
		.s20 { fill: url(#g17) } 
		.s21 { fill: url(#g18) } 
		.s22 { fill: url(#g19) } 
		.s23 { fill: url(#g20) } 
		.s24 { fill: url(#g21) } 
		.s25 { fill: url(#g22) } 
		.s26 { fill: url(#g23) } 
		.s27 { fill: url(#g24) } 
		.s28 { fill: #fbfcfd } 
		.s29 { fill: #87cdff } 
		.s30 { fill: #71c2f4 } 
		.s31 { fill: url(#g25) } 
		.s32 { fill: url(#g26) } 
		.s33 { fill: url(#g27) } 
		.s34 { fill: url(#g28) } 
		.s35 { fill: url(#g29) } 
		.s36 { fill: none;stroke: #ffffff;stroke-linejoin: round;stroke-width: 5 } 
		.s37 { fill: url(#g30) } 
		.s38 { fill: #ef353f } 
		.s39 { fill: none;stroke: #ef353f;stroke-width: 3 } 
		.s40 { fill: #ffffff;stroke: #ef353f;stroke-width: 3 } 
		.s41 { fill: url(#g31) } 
		.s42 { fill: #0991fd } 
		.s43 { fill: url(#g32) } 
		.s44 { fill: #ff0084 } 
		.s45 { fill: #4176fa } 
		.s46 { fill: url(#g33) } 
		.s47 { fill: url(#g34) } 
		.s48 { fill: #1ad4ff } 
		.s49 { fill: url(#g35) } 
		.s50 { fill: url(#g36) } 
		.s51 { fill: url(#g37) } 
		.s52 { fill: #107dff } 
		.s53 { fill: #fcfdfe } 
		.s54 { fill: url(#g38) } 
		.s55 { fill: #fff650 } 
	</style>
	<g id="BACKGROUND">
		<g id="&lt;Group&gt;">
			<g id="&lt;Group&gt;">
				<g id="&lt;Group&gt;" style="opacity: .3">
					<path id="&lt;Path&gt;" class="s0" d="m683.8 89.4c79.1-4.6 147 55.7 151.5 134.5 4.6 78.9-55.9 146.5-135.1 151.1-79.2 4.5-147.1-55.7-151.6-134.6-4.6-78.8 55.9-146.4 135.2-151z"/>
				</g>
				<g id="&lt;Group&gt;" style="opacity: .3">
					<path id="&lt;Path&gt;" class="s1" d="m592.6 463.4c63.8-3.6 118.5 44.9 122.1 108.4 3.7 63.4-45 118-108.8 121.6-63.8 3.6-118.5-44.8-122.2-108.3-3.6-63.5 45.2-117.9 108.9-121.7z"/>
				</g>
				<g id="&lt;Group&gt;" style="opacity: .3">
					<path id="&lt;Path&gt;" class="s2" d="m449.1 4.1c75-4.2 139.3 52.7 143.6 127.4 4.4 74.7-52.9 138.8-128 143.2-75 4.3-139.4-52.7-143.6-127.4-4.4-74.7 52.9-138.8 128-143.2z"/>
				</g>
				<g id="&lt;Group&gt;" style="opacity: .5">
					<path id="&lt;Path&gt;" class="s3" d="m194.3 127.7c58-3.3 107.8 40.9 111.1 98.7 3.4 57.8-40.9 107.4-99.1 110.7-58 3.4-107.8-40.8-111.1-98.6-3.4-57.8 41.1-107.4 99.1-110.8z"/>
				</g>
				<g id="&lt;Group&gt;" style="opacity: .1">
					<path id="&lt;Path&gt;" class="s4" d="m539.2 340.6c48.1-2.8 89.4 33.8 92.2 81.7 2.7 47.9-34.1 89-82.1 91.7-48.1 2.9-89.4-33.7-92.2-81.6-2.7-47.9 34.1-89 82.1-91.8z"/>
				</g>
				<g id="&lt;Group&gt;" style="opacity: .3">
					<path id="&lt;Path&gt;" class="s5" d="m213.5 345c85.9-4.8 159.5 60.3 164.4 145.8 5 85.5-60.6 158.8-146.5 163.7-85.8 5.1-159.4-60.3-164.4-145.7-4.9-85.5 60.8-158.7 146.5-163.8z"/>
				</g>
				<g id="&lt;Group&gt;" style="opacity: .5">
					<path id="&lt;Path&gt;" class="s6" d="m336.8 554.1c51.5-3 95.7 36.2 98.6 87.5 3 51.2-36.4 95.2-87.8 98.2-51.5 3-95.7-36.2-98.6-87.5-3-51.3 36.4-95.2 87.8-98.2z"/>
				</g>
			</g>
		</g>
	</g>
	<g id="OBJECTS">
		<g id="&lt;Group&gt;">
			<g id="&lt;Group&gt;">
				<g id="&lt;Group&gt;">
					<path id="&lt;Path&gt;" class="s7" d="m459.6 738.2c-1.4 0.8-8.2 4.6-14.5 6-8.2 1.8-18-2-22.7-14.8q-89.4-243.9-178.7-487.7c-6.4-17.4 3.8-33.5 22.3-36.7 27.7-4.8 112.1-17 163-28.2 9-1.9 19.7 5.9 23.9 17.4 53.7 146.6 173.9 447.7 173.8 447.5 0 0-3.9 6-6.3 7.9-2.8 2.1-12.2 7.3-15 8.7-52.4 26.8-93.9 52.8-145.8 79.9z"/>
					<path id="&lt;Path&gt;" class="s8" d="m460.6 737.8c-8.1 4.2-18.5-2.8-23.2-15.7-59.8-163.1-118.9-327.6-178.5-490.5-4.7-12.9-1.2-24.8 7.7-26.7 59.3-12.4 124-25.9 183.2-38.7 9-1.9 19.7 5.9 23.9 17.4 53.6 146.5 106 289.5 159.7 436.1 4.2 11.5 1 24.3-7.1 28.5-53.8 27.4-112.1 61.7-165.7 89.6z"/>
					<path id="&lt;Path&gt;" class="s9" d="m364.1 189.7c-25.3 5.7-54.8 12.2-86.4 19q-3 0.7-6 1.3-0.2 0.1-0.4 0.1-0.1 0-0.3 0.1-0.4 0.1-0.7 0.2c-0.5 0.1-0.9 0.4-1.3 0.6-0.4 0.2-0.8 0.5-1.2 0.7q-0.6 0.5-1.1 1c-2.7 2.9-3.9 7.9-3 13.4 0.5 2.8 1.5 5.5 2.6 8.5q1.6 4.4 3.2 8.8 3.3 8.8 6.5 17.7c8.7 23.8 17.7 47.9 26.5 72 17.6 48.3 35.2 96.5 51.8 141.7 16.4 45.3 31.8 87.6 45 123.8 26.2 72.5 43.8 120.9 43.8 120.9 0 0-18-48.2-44.7-120.5-13.5-36.2-29-78.4-45.7-123.6-16.6-45.2-34.3-93.5-52-141.8-8.8-24.1-17.7-48.3-26.4-72.1q-3.3-8.9-6.5-17.7-1.6-4.4-3.2-8.8c-0.5-1.5-1.1-2.9-1.6-4.5-0.5-1.6-0.8-3.1-1.1-4.7-1-6.2 0.3-11.8 3.4-15.1q0.6-0.6 1.2-1.1c0.4-0.3 0.9-0.6 1.3-0.9 0.5-0.2 1.1-0.5 1.5-0.6q0.4-0.1 0.8-0.2 0.2-0.1 0.4-0.1 0.2 0 0.3-0.1 3-0.6 6-1.2c31.8-6.6 61.4-12.8 86.8-18.2 51-10.5 84.8-17.6 84.8-17.6 0 0-33.6 7.7-84.3 19z"/>
					<path id="&lt;Path&gt;" class="s10" d="m626.1 644.3c0.6-0.4 1.5-1.1 2.5-2.2 1-1.2 2.1-3 2.9-5.4 0.8-2.4 1.3-5.5 0.9-9-0.1-1.8-0.5-3.7-1.1-5.6-0.6-1.9-1.4-3.8-2.1-5.8q-2.3-6.2-4.9-13.2c-3.5-9.5-7.5-20.1-11.8-31.7-8.6-23.2-18.7-50.3-29.4-79.3-10.7-29.1-20.8-56.6-32.2-87.6-11.4-31-22.6-62-33.2-91-10.6-29.1-20.5-56.3-28.9-79.6-4.2-11.6-8-22.3-11.4-31.7q-2.5-7.1-4.7-13.3c-0.8-2-1.4-4-2.2-5.8-0.7-1.9-1.6-3.5-2.7-5-2-2.9-4.4-5-6.6-6.4-2.2-1.3-4.1-2-5.7-2.2-1.5-0.3-2.6-0.3-3.4-0.2q-1.1 0.1-1.1 0.2 0-0.1 1.1-0.2c0.7-0.1 1.9-0.2 3.4 0 1.6 0.3 3.5 0.9 5.8 2.2 2.1 1.4 4.6 3.4 6.8 6.4 1 1.5 2 3.2 2.8 5 0.8 1.9 1.5 3.9 2.3 5.9q2.2 6.1 4.9 13.2c3.5 9.4 7.4 20.1 11.8 31.7 8.5 23.2 18.6 50.3 29.3 79.3 10.7 29 22 59.9 33.5 90.9 11.3 31 21.3 58.5 31.9 87.5 10.5 29.1 20.4 56.3 28.9 79.6 4.1 11.6 8 22.3 11.4 31.8q2.5 7.1 4.7 13.2c0.7 2.1 1.5 4 2.1 6 0.6 1.9 1 3.8 1.1 5.7 0.2 3.6-0.3 6.7-1.1 9.2-0.9 2.4-2 4.1-3 5.2-1.1 1.2-2 1.9-2.6 2.3q-1 0.5-1 0.5 0 0 1-0.6z"/>
					<g id="&lt;Group&gt;">
						<path id="&lt;Path&gt;" class="s11" d="m273 213.5c13.8-3 34-7.6 47.8-10.6 1.1-0.2 2.3 0.8 2.9 2.2q1.2 3.5 2.5 6.9c2.5 7 8.6 11.7 13.6 10.5q36.3-8.4 72.5-16.7c5-1.2 7.1-7.5 4.7-14.1q-1.3-3.3-2.5-6.6c-0.5-1.3 0-2.6 1-2.9 13.8-3 23.5-4.9 37.2-7.9 5.6-1.2 12.2 3.6 14.8 10.7 53.8 147 106.4 290.5 160.2 437.5 2.6 7.2 0.6 15.1-4.4 17.6-53.8 27.2-109.5 59.8-163.2 87.3-5 2.6-11.4-1.8-14.3-9.7-59.6-162.4-118.2-325.5-177.6-487.8-2.9-7.9-0.7-15.3 4.8-16.4z"/>
						<g id="&lt;Group&gt;">
							<path id="&lt;Path&gt;" class="s12" d="m491.8 348.7c12.8 34.7-2.5 72.3-34.1 83.9-31.5 11.6-68.6-10.1-82.8-48.4-14.1-38.4 1.2-75.9 34.1-83.8 32.9-8 70.1 13.6 82.8 48.3z"/>
							<path id="&lt;Path&gt;" class="s7" d="m477.4 353.1c9.7 26.5-1.8 54.7-25.7 63.1-23.9 8.5-51.7-7.9-62.3-36.4-10.5-28.5 1-56.8 25.6-63.1 24.7-6.3 52.6 10 62.4 36.4z"/>
							<path id="&lt;Path&gt;" class="s13" d="m476 390.9q0.3 0.9 0.6 1.7c-4.7 10.9-13.3 19.7-24.9 23.6-11.5 4-23.9 2.4-34.9-3.6q-0.3-1-0.7-1.9c-5.6-15.1-2-30.6 7.9-38.9-6.5-2.2-12.2-7.8-15.1-15.3-4.3-11.9 0.6-23.7 11-26.6 10.4-2.8 22.4 4.2 26.6 15.7 2.7 7.3 1.7 14.7-2 20 13.4 1.2 26.2 10.8 31.5 25.3z"/>
							<g id="&lt;Group&gt;">
								<path id="&lt;Compound Path&gt;" fill-rule="evenodd" class="s7" d="m433.6 520.2c-3.4 1.2-6.9 1-10.2-0.6-3.5-1.8-6.2-4.9-7.7-8.9q-0.1-0.4-0.3-0.9c-3-8 0.4-16.8 7.4-19.5q49.1-19.2 98.3-38.4c3.4-1.3 7.3-1.1 10.6 0.5 3.3 1.5 5.8 4.4 7.1 7.9q0.1 0.3 0.3 0.7c2.7 7.4-0.8 15.7-7.8 18.7q-48.7 20.2-97.4 40.4-0.2 0-0.3 0.1zm88.4-66.3q-0.1 0-0.2 0-49.2 19.2-98.2 38.4c-6.1 2.3-8.9 9.9-6.3 16.9q0.1 0.4 0.3 0.8c1.2 3.4 3.6 6.1 6.6 7.6 2.8 1.5 6 1.6 8.8 0.4q48.8-20.1 97.6-40.2c6-2.6 8.9-9.8 6.6-16.1q-0.1-0.4-0.3-0.7c-1-3-3.2-5.4-5.9-6.7-2.9-1.4-6.1-1.5-9-0.4z"/>
							</g>
							<g id="&lt;Group&gt;">
								<path id="&lt;Compound Path&gt;" fill-rule="evenodd" class="s7" d="m448.7 562c-3.1 1.3-6.6 1.1-9.7-0.4-3.5-1.7-6.2-4.8-7.7-8.8q-0.2-0.4-0.3-0.9c-3-8 0.3-17 7.2-19.9q48.6-20.7 97.1-41.4c3.5-1.4 7.2-1.3 10.6 0.3 3.2 1.5 5.7 4.3 7 7.8q0.2 0.4 0.3 0.8c2.7 7.3-0.7 15.8-7.6 18.9q-48.2 21.7-96.3 43.4-0.3 0.1-0.6 0.2zm87.8-69.5q-0.2 0-0.4 0.1-48.5 20.7-97.1 41.4c-6 2.5-8.7 10.3-6.2 17.2q0.2 0.4 0.3 0.9c1.3 3.4 3.6 6.1 6.6 7.5 2.8 1.4 5.9 1.4 8.7 0.2q48.2-21.7 96.4-43.3c5.9-2.7 8.9-10 6.6-16.3q-0.2-0.4-0.3-0.8c-1.1-3-3.2-5.3-5.9-6.6-2.8-1.3-5.9-1.4-8.7-0.3z"/>
							</g>
							<g id="&lt;Group&gt;">
								<path id="&lt;Compound Path&gt;" class="s7" d="m435 496.4q1.1 2.9 2.1 5.8 0.6 1.5 0.1 2.7-0.4 1.2-1.7 1.7-1.4 0.6-2.4 0-1.1-0.6-1.7-2.1-1-2.9-2.1-5.8 0.5-0.2 0.9-0.4 1.1 3 2.1 5.9 0.4 1.1 1.2 1.5 0.7 0.4 1.7 0 0.9-0.4 1.2-1.2 0.3-0.8-0.1-1.9-1.1-2.9-2.2-5.8 0.5-0.2 0.9-0.4z"/>
								<path id="&lt;Compound Path&gt;" class="s7" d="m443 501.3q0.3 1 0 1.7-0.4 0.7-1.5 1.2-1.1 0.4-1.8 0.2-0.2-0.4-0.4-0.9 0.5 0.1 1 0 0.5 0 0.9-0.2 0.7-0.2 1-0.6 0.2-0.4 0-1-0.1-0.3-0.5-0.5-0.4-0.2-1.3-0.2-0.9-0.1-1.4-0.2-0.4-0.1-0.7-0.4-0.2-0.2-0.4-0.7-0.3-0.8 0.1-1.5 0.3-0.7 1.3-1.1 0.9-0.3 1.9-0.2 0 0.4 0 0.9-1-0.1-1.6 0.2-0.6 0.2-0.9 0.6-0.2 0.3 0 0.7 0.1 0.3 0.2 0.4 0.2 0.2 0.5 0.2 0.4 0.1 1.2 0.1 1.1 0.1 1.7 0.4 0.5 0.3 0.7 0.9z"/>
								<path id="&lt;Compound Path&gt;" fill-rule="evenodd" class="s7" d="m447.4 501.8q-1.2 0.5-2.2-0.1-1.1-0.7-1.7-2.2-0.6-1.7-0.3-2.9 0.4-1.2 1.5-1.6 1-0.4 1.9 0.1 0.9 0.6 1.4 2 0.1 0.3 0.3 0.6-2 0.8-3.9 1.5 0.5 1.2 1.2 1.6 0.7 0.4 1.5 0.1 0.9-0.4 1.6-1.2 0.2 0.5 0.4 0.9-0.4 0.4-0.8 0.7-0.3 0.2-0.9 0.5zm-2.4-6q-0.7 0.3-0.9 1-0.2 0.7 0.1 1.6 1.4-0.6 2.9-1.2-0.4-0.9-0.9-1.3-0.6-0.3-1.2-0.1z"/>
								<path id="&lt;Compound Path&gt;" class="s7" d="m450.9 492.5q0.4-0.2 0.7-0.2 0.1 0.5 0.2 1-0.4 0-0.6 0.1-0.7 0.3-0.9 1.1-0.3 0.9 0.1 1.9 0.6 1.7 1.3 3.5-0.4 0.2-0.9 0.3-1.2-3.3-2.4-6.6 0.4-0.1 0.7-0.3 0.3 0.6 0.5 1.2 0.1 0 0.1 0 0.1-0.8 0.4-1.3 0.3-0.5 0.8-0.7z"/>
								<path id="&lt;Compound Path&gt;" class="s7" d="m459 497q-0.8-2.1-1.7-4.3-0.3-0.8-0.8-1-0.4-0.3-1.1 0-0.8 0.3-1 1-0.2 0.7 0.2 2 0.7 1.8 1.4 3.5-0.4 0.2-0.8 0.3-1.4-3.3-2.6-6.6 0.4-0.1 0.7-0.2 0.3 0.4 0.5 0.8 0.1-0.6 0.5-1.1 0.3-0.4 0.9-0.6 1-0.4 1.7-0.1 0.8 0.4 1.2 1.7 0.9 2.1 1.7 4.3-0.4 0.1-0.8 0.3z"/>
								<path id="&lt;Compound Path&gt;" fill-rule="evenodd" class="s7" d="m464.9 494.6q-0.2-0.5-0.5-0.9-0.2 0.8-0.6 1.2-0.3 0.4-0.9 0.6-0.8 0.4-1.5 0.1-0.6-0.4-1-1.3-0.8-2 2-3.2 0.4-0.2 0.9-0.4-0.1-0.2-0.2-0.4-0.4-0.7-0.8-1-0.4-0.3-1 0-0.7 0.3-1.4 1.1-0.3-0.3-0.5-0.6 0.3-0.5 0.7-0.8 0.5-0.4 0.9-0.6 1-0.3 1.7 0 0.7 0.3 1.2 1.5 0.8 2.2 1.6 4.4-0.3 0.1-0.6 0.3zm-2.1 0q0.8-0.3 1-1 0.3-0.7-0.1-1.6-0.1-0.3-0.2-0.6-0.4 0.2-0.8 0.4-1 0.5-1.3 1-0.3 0.5-0.1 1.2 0.2 0.5 0.6 0.7 0.4 0.1 0.9-0.1z"/>
								<path id="&lt;Compound Path&gt;" class="s7" d="m474.3 490.8q-0.7-2.2-1.5-4.3-0.3-0.7-0.7-1-0.5-0.3-1.1-0.1-0.7 0.4-0.9 1-0.2 0.7 0.2 1.8 0.7 1.8 1.3 3.7-0.4 0.1-0.8 0.3-0.8-2.1-1.6-4.2-0.3-0.8-0.7-1.1-0.4-0.3-1 0-0.8 0.3-1 1-0.1 0.7 0.3 2 0.7 1.7 1.3 3.4-0.4 0.2-0.8 0.3-1.2-3.2-2.5-6.5 0.3-0.2 0.6-0.3 0.4 0.4 0.6 0.9 0-0.1 0.1-0.1 0-0.5 0.4-1 0.3-0.4 0.8-0.6 1.3-0.6 2.1 0.4 0.1 0 0.1 0 0-0.6 0.4-1.1 0.4-0.5 1-0.7 0.9-0.4 1.6 0 0.6 0.3 1.1 1.6 0.8 2.1 1.6 4.2-0.5 0.2-0.9 0.4z"/>
								<path id="&lt;Compound Path&gt;" fill-rule="evenodd" class="s7" d="m479.3 488.9q-1.2 0.5-2.3-0.1-1-0.6-1.6-2.1-0.6-1.6-0.2-2.8 0.3-1.2 1.4-1.6 1-0.5 1.9 0.1 0.9 0.6 1.4 1.9 0.1 0.3 0.2 0.6-1.9 0.8-3.8 1.5 0.5 1.2 1.2 1.6 0.6 0.4 1.5 0 0.9-0.3 1.6-1.1 0.2 0.4 0.3 0.8-0.3 0.4-0.7 0.7-0.4 0.3-0.9 0.5zm-2.4-5.8q-0.7 0.3-0.9 0.9-0.2 0.7 0.1 1.6 1.4-0.6 2.9-1.1-0.4-1-0.9-1.3-0.6-0.4-1.2-0.1z"/>
							</g>
							<g id="&lt;Group&gt;">
								<path id="&lt;Compound Path&gt;" fill-rule="evenodd" class="s7" d="m452.1 540.2q0.4 1.3 0 2.4-0.5 1-1.9 1.7-0.5 0.1-0.9 0.3 0.6 1.8 1.3 3.5-0.4 0.2-0.9 0.4-1.6-4.5-3.2-8.9 0.9-0.4 1.9-0.8 2.7-1.2 3.7 1.4zm-3.1 3.5q0.4-0.1 0.7-0.3 1.2-0.5 1.5-1.2 0.4-0.6 0-1.6-0.3-0.9-1-1.1-0.6-0.2-1.6 0.2-0.5 0.2-1 0.4 0.7 1.8 1.4 3.6z"/>
								<path id="&lt;Compound Path&gt;" fill-rule="evenodd" class="s7" d="m459.1 544.4q-0.2-0.5-0.5-0.9-0.2 0.8-0.5 1.2-0.3 0.4-1 0.7-0.8 0.3-1.4 0-0.7-0.3-1-1.2-0.8-2 1.9-3.3 0.4-0.2 0.9-0.4-0.1-0.2-0.2-0.4-0.3-0.8-0.7-1.1-0.4-0.2-1 0-0.7 0.3-1.4 1.2-0.2-0.3-0.5-0.6 0.3-0.5 0.7-0.8 0.5-0.4 0.9-0.6 1-0.4 1.7-0.1 0.7 0.3 1.1 1.5 0.8 2.2 1.7 4.5-0.4 0.1-0.7 0.3zm-2.1 0.1q0.8-0.4 1-1.1 0.3-0.7-0.1-1.6-0.1-0.3-0.2-0.6-0.4 0.2-0.8 0.4-1 0.5-1.3 1-0.3 0.5 0 1.2 0.2 0.6 0.5 0.7 0.4 0.2 0.9 0z"/>
								<path id="&lt;Compound Path&gt;" class="s7" d="m464.3 540q0.4 0.9 0 1.7-0.4 0.7-1.4 1.2-1.1 0.4-1.9 0.3-0.2-0.5-0.3-0.9 0.5 0 1 0 0.5-0.1 0.9-0.3 0.6-0.3 0.9-0.7 0.3-0.4 0.1-0.9-0.2-0.4-0.6-0.5-0.3-0.2-1.3-0.2-0.9 0-1.3-0.1-0.4-0.1-0.7-0.4-0.3-0.3-0.4-0.7-0.3-0.8 0-1.5 0.4-0.7 1.4-1.2 0.9-0.3 1.9-0.3 0 0.5 0 1-1-0.1-1.7 0.2-0.6 0.3-0.8 0.6-0.2 0.4-0.1 0.8 0.1 0.2 0.3 0.4 0.2 0.1 0.5 0.2 0.3 0 1.2 0.1 1.1 0 1.6 0.2 0.5 0.3 0.7 1z"/>
								<path id="&lt;Compound Path&gt;" class="s7" d="m469.2 537.8q0.4 1 0 1.7-0.4 0.8-1.4 1.2-1.1 0.5-1.9 0.3-0.2-0.4-0.3-0.9 0.4 0.1 0.9 0 0.6 0 1-0.2 0.6-0.3 0.9-0.7 0.2-0.4 0-0.9-0.1-0.4-0.5-0.6-0.4-0.1-1.3-0.1-0.9 0-1.3-0.2-0.4-0.1-0.7-0.3-0.3-0.3-0.4-0.7-0.3-0.9 0-1.6 0.4-0.7 1.4-1.1 0.8-0.4 1.9-0.3 0 0.5 0 0.9-1 0-1.7 0.3-0.6 0.2-0.8 0.6-0.2 0.4-0.1 0.7 0.1 0.3 0.3 0.4 0.2 0.2 0.5 0.2 0.3 0.1 1.1 0.1 1.2 0 1.7 0.3 0.5 0.3 0.7 0.9z"/>
								<path id="&lt;Compound Path&gt;" class="s7" d="m475.7 537.1q-1.2-1.7-2.4-3.4-0.2-0.4-1-1.5 0.2 1.2 0.2 1.8 0.2 2.1 0.4 4.3-0.5 0.2-0.9 0.4-2-2.9-4-5.9 0.5-0.2 0.9-0.4 1.5 2.3 2.2 3.4 0.8 1.2 1 1.6-0.1-0.3-0.1-0.9-0.1-0.6-0.1-1-0.2-2.1-0.4-4.2 0.4-0.2 0.9-0.4 1.2 1.7 2.3 3.3 0.7 0.9 1.1 1.6-0.1-0.2-0.1-0.7-0.1-0.5-0.8-5.3 0.5-0.2 0.9-0.4 0.4 3.6 0.9 7.2-0.5 0.3-1 0.5z"/>
								<path id="&lt;Compound Path&gt;" fill-rule="evenodd" class="s7" d="m482.7 530.2q0.6 1.6 0.3 2.8-0.4 1.2-1.6 1.7-0.7 0.3-1.4 0.2-0.8-0.2-1.4-0.8-0.5-0.7-0.9-1.7-0.6-1.6-0.3-2.8 0.4-1.2 1.6-1.7 1.1-0.5 2.1 0.1 1 0.6 1.6 2.2zm-4.2 1.8q0.5 1.3 1.2 1.7 0.6 0.5 1.4 0.2 0.8-0.4 1-1.2 0.2-0.9-0.2-2.1-0.5-1.3-1.2-1.7-0.6-0.5-1.5-0.2-0.8 0.4-1 1.2-0.1 0.8 0.3 2.1z"/>
								<path id="&lt;Compound Path&gt;" class="s7" d="m485.4 525.1q0.4-0.2 0.7-0.2 0.1 0.5 0.2 0.9-0.3 0.1-0.6 0.2-0.7 0.3-0.9 1.1-0.2 0.9 0.1 1.9 0.7 1.7 1.3 3.4-0.4 0.2-0.8 0.4-1.2-3.2-2.4-6.5 0.3-0.2 0.7-0.3 0.2 0.6 0.5 1.2 0 0 0-0.1 0.1-0.7 0.4-1.3 0.3-0.5 0.8-0.7z"/>
								<path id="&lt;Compound Path&gt;" fill-rule="evenodd" class="s7" d="m493 528.5q-0.1 0-0.1 0-0.2 1.2-1.3 1.7-1.1 0.5-2-0.1-1-0.6-1.5-2.2-0.6-1.6-0.4-2.8 0.3-1.1 1.4-1.6 1.1-0.5 2 0.2 0.1 0 0.1 0-0.1-0.2-0.2-0.5-0.1-0.2-0.2-0.4-0.5-1.3-1-2.6 0.5-0.2 0.9-0.4 1.7 4.6 3.4 9.2-0.4 0.1-0.7 0.3-0.2-0.4-0.4-0.8zm-1.6 0.9q0.8-0.4 1-1.1 0.2-0.7-0.3-2 0-0.1-0.1-0.2-0.5-1.3-1.1-1.8-0.6-0.4-1.4 0-0.8 0.3-0.9 1.1-0.1 0.9 0.3 2.1 0.5 1.3 1.1 1.7 0.6 0.5 1.4 0.2z"/>
							</g>
							<g id="&lt;Group&gt;">
								<g id="&lt;Group&gt;">
									<path id="&lt;Path&gt;" class="s7" d="m503.2 579.4q-0.4-1-0.8-1.9 7.3-3.6 14.7-7.1 0.4 1 0.8 2-7.3 3.5-14.7 7z"/>
								</g>
								<g id="&lt;Group&gt;">
									<path id="&lt;Path&gt;" class="s7" d="m515.7 580q-0.9-0.4-1.9-0.8 1.3-3.6 2.5-7.3-3.1-1.5-6.2-3.1 0.4-0.9 0.7-1.9 3.6 1.8 7.1 3.5c0.5 0.2 0.7 0.8 0.6 1.4q-1.4 4.1-2.8 8.2z"/>
								</g>
							</g>
						</g>
						<path id="&lt;Path&gt;" class="s14" d="m273.3 213.4c13.7-3 33.8-7.5 47.5-10.5 1.1-0.2 2.3 0.8 2.9 2.2q1.2 3.5 2.5 6.9c2.5 7 8.6 11.7 13.6 10.5q36.3-8.4 72.5-16.7c5-1.2 7.1-7.5 4.7-14.1q-1.3-3.3-2.5-6.6c-0.5-1.3 0-2.6 1-2.9 13.8-3 23.5-4.9 37.2-7.9 5.6-1.2 12.2 3.6 14.8 10.7 45.1 123.2 89.3 243.8 134.2 366.2q-160.6-159-328.4-337.8z"/>
					</g>
					<path id="&lt;Compound Path&gt;" fill-rule="evenodd" class="s15" d="m352.5 203.2c-0.3-0.9 0-1.8 0.7-1.9q19.4-4.3 38.8-8.6c0.7-0.2 1.6 0.5 2 1.4 0.3 0.9 0 1.8-0.7 1.9q-19.5 4.4-38.9 8.7c-0.7 0.1-1.5-0.5-1.9-1.5zm-6.6-0.2c0.6-0.2 1.5 0.5 1.8 1.4 0.4 0.9 0.1 1.8-0.6 2-0.7 0.1-1.5-0.5-1.9-1.5-0.3-0.9 0-1.8 0.7-1.9z"/>
				</g>
			</g>
			<g id="&lt;Group&gt;">
				<g id="&lt;Group&gt;">
					<path id="&lt;Path&gt;" class="s16" d="m796.5 427l-67.6 42.9c-0.7 0.4-1.6 0.2-2.1-0.5-0.4-0.7-0.2-1.6 0.5-2.1q0 0 0.1 0z"/>
				</g>
				<g id="&lt;Group&gt;">
					<path id="&lt;Path&gt;" class="s17" d="m149.6 540.1l-67.6 42.9c-0.7 0.4-1.6 0.2-2.1-0.5-0.4-0.7-0.2-1.6 0.5-2.1z"/>
				</g>
				<path id="&lt;Path&gt;" class="s7" d="m551.6 291.7c-2.2 0-4-1.9-4-4.1 0-2.3 1.8-4.1 4-4.1 2.3 0 4.1 1.8 4.1 4.1 0 2.2-1.8 4.1-4.1 4.1z"/>
				<path id="&lt;Path&gt;" class="s18" d="m856.2 188.5c-2 0-3.6-1.7-3.6-3.7 0-2 1.6-3.6 3.6-3.6 2 0 3.6 1.6 3.6 3.6 0 2-1.6 3.7-3.6 3.7z"/>
				<path id="&lt;Path&gt;" class="s18" d="m261.8 764c-2 0-3.6-1.6-3.6-3.7 0-2 1.6-3.6 3.6-3.6 2.1 0 3.7 1.6 3.7 3.6 0 2.1-1.6 3.7-3.7 3.7z"/>
				<path id="&lt;Path&gt;" class="s18" d="m308.8 499.4c-2 0-3.6-1.6-3.6-3.6 0-2 1.6-3.6 3.6-3.6 2 0 3.7 1.6 3.7 3.6 0 2-1.7 3.6-3.7 3.6z"/>
				<path id="&lt;Path&gt;" class="s18" d="m715.1 794.4c-2 0-3.7-1.7-3.7-3.7 0-2 1.6-3.7 3.7-3.7 2 0 3.6 1.7 3.6 3.7 0 2-1.6 3.7-3.6 3.7z"/>
				<path id="&lt;Path&gt;" class="s18" d="m70.4 73.3c-2.1 0-3.7-1.6-3.7-3.6 0-2.1 1.6-3.7 3.6-3.7 2.1 0 3.7 1.6 3.7 3.6 0 2.1-1.6 3.7-3.6 3.7z"/>
				<path id="&lt;Path&gt;" class="s18" d="m53.9 301.6c-2.1 0-3.7-1.6-3.7-3.6 0-2.1 1.6-3.7 3.7-3.7 2 0 3.6 1.6 3.6 3.7 0 2-1.6 3.6-3.6 3.6z"/>
				<path id="&lt;Path&gt;" class="s18" d="m345.7 150c-2.1 0-3.7-1.7-3.7-3.7 0-2 1.6-3.7 3.6-3.7 2.1 0 3.7 1.7 3.7 3.7 0 2-1.6 3.7-3.6 3.7z"/>
				<path id="&lt;Path&gt;" class="s7" d="m642.4 565.3c-2.3 0-4.1-1.8-4.1-4.1 0-2.3 1.8-4.1 4.1-4.1 2.3 0 4.1 1.8 4.1 4.1 0 2.3-1.8 4.1-4.1 4.1z"/>
				<path id="&lt;Path&gt;" class="s7" d="m414.2 44.4c-2.3 0-4.1-1.8-4.1-4.1 0-2.3 1.8-4.1 4.1-4.1 2.2 0 4.1 1.8 4.1 4.1 0 2.3-1.9 4.1-4.1 4.1z"/>
				<path id="&lt;Path&gt;" class="s7" d="m109.7 780.5c-2.3 0-4.1-1.9-4.1-4.1 0-2.3 1.8-4.1 4.1-4.1 2.3 0 4.1 1.8 4.1 4.1 0 2.2-1.8 4.1-4.1 4.1z"/>
				<path id="&lt;Path&gt;" class="s7" d="m734.3 44.2c-2.3 0-4.1-1.8-4.1-4.1 0-2.2 1.8-4.1 4.1-4.1 2.2 0 4.1 1.9 4.1 4.1 0 2.3-1.9 4.1-4.1 4.1z"/>
				<g id="&lt;Group&gt;">
					<path id="&lt;Path&gt;" class="s19" d="m658.8 142.5l-67.6 42.9c-0.7 0.4-1.6 0.2-2.1-0.5-0.4-0.7-0.2-1.6 0.5-2q0-0.1 0-0.1z"/>
				</g>
				<g id="&lt;Group&gt;">
				</g>
				<g id="&lt;Group&gt;">
					<path id="&lt;Path&gt;" class="s20" d="m442.6 705.6l-67.7 42.9c-0.7 0.5-1.6 0.3-2.1-0.4-0.4-0.7-0.2-1.7 0.5-2.1z"/>
				</g>
				<path id="&lt;Path&gt;" class="s21" d="m778.6 719.2c9.8 0.3 17.3 8.5 16.9 18.1-0.4 9.7-8.5 17.2-18.2 16.8-9.6-0.4-17.1-8.5-16.8-18.2 0.4-9.6 8.5-17.1 18.1-16.7z"/>
				<path id="&lt;Path&gt;" class="s22" d="m202.5 275.1c1.5 9.5-4.9 18.5-14.5 20.1-9.5 1.5-18.5-4.9-20-14.4-1.6-9.6 4.9-18.6 14.4-20.1 9.5-1.6 18.5 4.9 20.1 14.4z"/>
				<path id="&lt;Path&gt;" class="s23" d="m231.2 783.4c0.8 4.6-2.4 9-7 9.8-4.6 0.7-9-2.4-9.7-7-0.8-4.7 2.3-9 7-9.8 4.6-0.7 8.9 2.4 9.7 7z"/>
				<path id="&lt;Path&gt;" class="s24" d="m592.3 353.1c3.9 1.7 5.5 6.2 3.8 9.9-1.7 3.8-6.1 5.5-9.8 3.8-3.9-1.8-5.6-6.2-3.9-9.9 1.7-3.8 6.2-5.5 9.9-3.8z"/>
				<path id="&lt;Path&gt;" class="s25" d="m276.6 590.2c3.8 1.7 5.4 6.1 3.7 9.9-1.7 3.7-6.1 5.4-9.9 3.7-3.7-1.7-5.4-6.1-3.7-9.9 1.7-3.8 6.1-5.4 9.9-3.7z"/>
				<path id="&lt;Path&gt;" class="s26" d="m333 619.3c1.7 9.6-4.8 18.5-14.3 20.1-9.6 1.6-18.6-4.9-20.2-14.4-1.6-9.5 4.9-18.5 14.4-20.1 9.5-1.6 18.5 4.9 20.1 14.4z"/>
				<g id="&lt;Group&gt;">
					<path id="&lt;Compound Path&gt;" fill-rule="evenodd" class="s7" d="m361.2 720.7q-1.2 2.6-3 4.4-1.9 1.8-3.9 2.3-2 0.5-4-0.4-1.4-0.6-2.1-1.8-0.7-1.2-0.5-2.7l-0.2-0.1q-1.5 1-3.2 1.1-1.6 0.1-3.2-0.7-3-1.3-3.8-4-0.8-2.7 0.7-6 1.7-3.7 5-5 3.4-1.3 7.2 0.4 1.3 0.6 2.9 1.6 1.6 1 2.7 2.1l-4.3 8.2-0.2 0.5q-1.4 2.9 0.5 3.8 1.5 0.6 3.2-0.8 1.7-1.5 3-4.4 1.4-3.1 1.2-6-0.1-3-1.9-5.3-1.7-2.4-4.8-3.8-3.9-1.7-7.5-1.4-3.6 0.3-6.4 2.6-2.9 2.2-4.7 6.1-2.5 5.3-1 9.5 1.5 4.1 6.8 6.5 4 1.9 9.1 2.3l-1.3 2.9q-4.6-0.2-9.1-2.2-6.7-3.1-8.8-8.5-2.1-5.4 0.9-11.9 2.2-4.7 6-7.5 3.7-2.7 8.2-3 4.6-0.4 9.1 1.7 4 1.8 6.3 4.9 2.3 3.1 2.6 6.9 0.3 3.8-1.5 7.7zm-19.8-6.2q-1.9 4.2 1.4 5.8 3.5 1.6 6.3-3.7l2.2-4.2q-1-0.8-2.3-1.5-2.3-0.9-4.3 0-2 1-3.3 3.6z"/>
				</g>
				<g id="&lt;Group&gt;">
					<path id="&lt;Compound Path&gt;" fill-rule="evenodd" class="s7" d="m135.7 353.4l-4.4 5.7 6.1 3.1-1.9 3.7-6.8-3.4-6.6 8.5-4-2 6.6-8.5-5.6-2.8-6.5 8.5-3.9-2 6.4-8.5-5.6-2.9 1.9-3.7 6.4 3.2 4.4-5.7-5.9-3 1.9-3.8 6.6 3.3 6.6-8.5 4 2-6.6 8.6 5.7 2.8 6.6-8.6 3.9 2-6.6 8.6 5.6 2.8-1.9 3.8zm-14 0.9l5.6 2.8 4.5-5.7-5.6-2.8z"/>
				</g>
				<g id="&lt;Group&gt;">
					<g id="&lt;Group&gt;">
						<path id="&lt;Path&gt;" class="s7" d="m379.6 102.6c1.3 1.8 0.9 4.2-0.9 5.5-1.7 1.3-4.2 0.9-5.5-0.9-1.2-1.7-0.8-4.2 0.9-5.5 1.8-1.2 4.2-0.8 5.5 0.9z"/>
					</g>
					<g id="&lt;Group&gt;">
						<path id="&lt;Path&gt;" class="s7" d="m388.5 106.9l-3.9-0.7c0.4-2.2-0.2-4.3-1.5-6.1-1.3-1.8-3.2-3-5.4-3.4l0.7-3.9c3.2 0.5 6 2.3 8 4.9 1.9 2.7 2.6 5.9 2.1 9.2z"/>
					</g>
					<g id="&lt;Group&gt;">
						<path id="&lt;Path&gt;" class="s7" d="m374.5 117c-3.2-0.5-6.1-2.2-8-4.9-1.9-2.6-2.7-5.9-2.2-9.1l3.9 0.6c-0.3 2.2 0.2 4.4 1.5 6.2 1.3 1.8 3.2 3 5.4 3.3z"/>
					</g>
					<g id="&lt;Group&gt;">
						<path id="&lt;Path&gt;" class="s7" d="m396.8 108.2l-4-0.6c0.8-4.4-0.3-8.8-2.9-12.4-2.6-3.6-6.5-6-10.8-6.7l0.6-3.9c5.4 0.9 10.2 3.8 13.4 8.2 3.2 4.5 4.5 9.9 3.7 15.4z"/>
					</g>
					<g id="&lt;Group&gt;">
						<path id="&lt;Path&gt;" class="s7" d="m373.2 125.3c-5.5-0.9-10.2-3.8-13.5-8.3-3.2-4.5-4.5-9.9-3.6-15.3l3.9 0.6c-0.7 4.4 0.3 8.8 3 12.4 2.6 3.6 6.4 5.9 10.8 6.6z"/>
					</g>
					<g id="&lt;Group&gt;">
						<path id="&lt;Path&gt;" class="s7" d="m393.6 125.3l-3.2 2.3-15.6-21.5 3.2-2.3z"/>
					</g>
				</g>
				<g id="&lt;Group&gt;">
					<g id="&lt;Group&gt;">
						<path id="&lt;Compound Path&gt;" fill-rule="evenodd" class="s7" d="m600.6 255.7l-3.9 0.8-2.7-14.3-12.8-8.8c-0.7-0.4-1-1.2-0.9-2 0.2-0.8 0.8-1.4 1.6-1.5l11.4-2.2c1.1-0.2 2.1 0.5 2.3 1.6zm-13.2-22.9l5.6 3.9-0.9-4.8z"/>
					</g>
					<g id="&lt;Group&gt;">
						<path id="&lt;Compound Path&gt;" fill-rule="evenodd" class="s7" d="m611.3 251.6q-0.2 0.4-0.5 0.6c-0.7 0.4-1.6 0.4-2.2 0l-12.9-8.8-14.2 2.7-0.8-3.9 26.5-5c1.1-0.2 2.1 0.5 2.3 1.6l2.1 11.4c0.1 0.5 0 1-0.3 1.4zm-10.1-9.3l5.7 3.9-0.9-4.7z"/>
					</g>
				</g>
			</g>
			<g id="&lt;Group&gt;">
				<g id="&lt;Group&gt;">
					<path id="&lt;Compound Path&gt;" fill-rule="evenodd" class="s27" d="m245 430.5c-0.6 3-1.7 5.9-3.1 8.6l7.8 5.2c-3.3 5.9-8 11.1-13.6 15l-5.9-7.2c-2.5 1.7-5.3 3-8.3 4l8 3.7-6.1 5.3c-3.2 1-6.6 1.6-10.1 1.8-3.5 0.1-6.9-0.1-10.2-0.7l0.9-9.2c-3-0.7-5.9-1.7-8.6-3.1l1 2.4-6.1 5.3c-6-3.3-11.2-7.9-15.1-13.5l6.2-5.4 1-0.6c-1.7-2.5-3-5.3-4-8.2l-9 1.8c-1-3.2-1.6-6.6-1.8-10-0.1-3.5 0-6.9 0.6-10.2l6.2-5.3 3.1 6.2c0.7-3.1 1.7-6 3-8.6l-7.7-5.2c3.3-6 7.9-11.1 13.5-15l6 7.1c2.5-1.6 5.4-3 8.3-3.9l-1.9-9.1 6.2-5.3c0 0 1.9 3.7 3.9 3.6 3.5-0.2 6.9 0.1 10.2 0.7l-0.9 9.2c3.1 0.6 6 1.7 8.6 3.1l5.2-7.8 6.2-5.3c0 0 5.2 13.6 8.8 18.9l-7.1 5.9c1.6 2.5 3 5.3 3.9 8.3l9.1-1.8c0.9 3.2 1.5 6.5 1.7 10 0.1 2.1 5.5 4.8 5.5 4.8l-6.2 5.4zm-12.6-8.2c-0.6-11.5-10.4-20.4-22-19.8-11.5 0.6-20.4 10.4-19.8 22 0.6 11.5 10.4 20.4 22 19.8 11.5-0.6 20.4-10.4 19.8-22z"/>
					<path id="&lt;Compound Path&gt;" fill-rule="evenodd" class="s28" d="m251.2 425.2c-0.7 3-1.7 5.9-3.1 8.6l7.7 5.1c-3.3 6-7.9 11.2-13.5 15.1l-6-7.2c-2.5 1.7-5.3 3-8.2 3.9l1.8 9.1c-3.2 1-6.6 1.6-10 1.7q-5.3 0.3-10.2-0.6l0.9-9.3c-3.1-0.6-6-1.6-8.6-3l-5.2 7.7c-6-3.3-11.1-7.9-15-13.6l7.1-5.9c-1.6-2.5-3-5.3-3.9-8.2l-9.1 1.8c-0.9-3.2-1.5-6.6-1.7-10.1-0.2-3.4 0-6.8 0.6-10.1l9.3 0.8c0.6-3 1.7-5.9 3.1-8.6l-7.9-5.1c3.3-6 8-11.2 13.6-15l5.9 7.1c2.6-1.7 5.4-3 8.4-3.9l-1.9-9.1c3.2-1 6.5-1.6 10.1-1.7q5.2-0.3 10.2 0.6l-0.9 9.3c3 0.6 5.9 1.6 8.6 3l5.2-7.7c5.9 3.3 11.1 7.9 15 13.6l-7.2 5.9c1.7 2.5 3 5.3 4 8.2l9.1-1.8c0.9 3.2 1.5 6.6 1.7 10.1 0.1 3.5-0.1 6.9-0.7 10.1zm-12.6-8.1c-0.6-11.6-10.5-20.5-22-19.9-11.6 0.6-20.5 10.5-19.9 22 0.6 11.6 10.5 20.5 22 19.9 11.6-0.6 20.5-10.4 19.9-22z"/>
					<path id="&lt;Path&gt;" class="s29" d="m169.8 435.7l6.1-5.3 9.1-1.8-6.2 5.3z"/>
					<path id="&lt;Path&gt;" class="s29" d="m173.2 402.6l6.1-5.3 7.9 5.1-6.3 5.4z"/>
					<path id="&lt;Path&gt;" class="s30" d="m204.4 457l6.2-5.4-0.9 9.3-6.2 5.3z"/>
					<path id="&lt;Path&gt;" class="s30" d="m230.2 452.1l6.1-5.3 6 7.2-6.2 5.3z"/>
				</g>
				<g id="&lt;Group&gt;">
					<path id="&lt;Compound Path&gt;" fill-rule="evenodd" class="s31" d="m185.2 498.5q-1.1 2.5-2.7 4.6l3.9 3.7c-2.5 3.1-5.7 5.5-9.2 7.1l-2.6-4.6q-2.5 1-5.1 1.3l4.1 3-4 2.4q-2.9 0.3-5.9 0-3-0.4-5.7-1.4l1.5-5.1q-2.5-1.1-4.6-2.7l0.3 1.5-4 2.4c-3.1-2.5-5.5-5.7-7.1-9.2l4-2.4 0.6-0.3q-1-2.4-1.3-5l-5.4 0.1q-0.3-2.9 0.1-5.9 0.4-3 1.4-5.7l4.1-2.4 1.1 3.9q1-2.5 2.6-4.6l-3.9-3.7c2.5-3.1 5.7-5.5 9.3-7.1l2.6 4.6q2.4-1 5-1.3l-0.1-5.4 4.1-2.4c0 0 0.7 2.2 1.8 2.4q3 0.4 5.7 1.4l-1.4 5.1q2.4 1.1 4.5 2.7l3.7-3.9 4-2.3c0 0 1.6 8.2 3.1 11.5l-4.6 2.7q1 2.4 1.4 5l5.3-0.1q0.3 2.9-0.1 5.9c-0.1 1.2 2.6 3.3 2.6 3.3l-4 2.4zm-6.3-5.9c0.8-6.6-3.8-12.7-10.4-13.5-6.6-0.9-12.7 3.9-13.5 10.5-0.9 6.6 3.8 12.6 10.4 13.4 6.6 0.8 12.6-3.8 13.5-10.4z"/>
					<path id="&lt;Compound Path&gt;" fill-rule="evenodd" class="s28" d="m189.2 496.2q-1 2.4-2.6 4.5l3.8 3.7c-2.5 3.1-5.6 5.5-9.2 7.1l-2.6-4.6q-2.4 1-5.1 1.4l0.1 5.3q-2.9 0.3-5.9-0.1-2.9-0.4-5.6-1.3l1.4-5.1q-2.5-1-4.6-2.6l-3.7 3.8c-3-2.5-5.5-5.6-7.1-9.2l4.7-2.6q-1.1-2.4-1.4-5.1l-5.3 0.1q-0.3-2.9 0-5.9 0.4-3 1.5-5.7l5.1 1.5q1-2.5 2.6-4.6l-3.8-3.7c2.4-3 5.6-5.5 9.2-7.1l2.6 4.7q2.4-1.2 5.1-1.5l-0.1-5.3q2.8-0.4 5.8 0 3 0.4 5.7 1.4l-1.4 5.2q2.5 1 4.5 2.6l3.7-3.8c3.1 2.4 5.5 5.6 7.2 9.2l-4.7 2.6q1 2.4 1.4 5h5.3q0.3 2.8-0.1 5.8-0.3 3-1.4 5.7zm-6.3-5.9c0.9-6.6-3.8-12.6-10.4-13.5-6.6-0.8-12.6 3.8-13.5 10.5-0.8 6.6 3.8 12.6 10.4 13.4 6.6 0.9 12.7-3.8 13.5-10.4z"/>
					<path id="&lt;Path&gt;" class="s29" d="m142 493.9l4.1-2.4 5.3-0.1-4 2.4z"/>
					<path id="&lt;Path&gt;" class="s29" d="m147.4 475.5l4.1-2.4 3.8 3.7-4 2.4z"/>
					<path id="&lt;Path&gt;" class="s30" d="m159.5 509.5l4-2.4-1.4 5.1-4.1 2.4z"/>
					<path id="&lt;Path&gt;" class="s30" d="m174.6 509.3l4-2.4 2.6 4.6-4 2.4z"/>
				</g>
				<g id="&lt;Group&gt;">
					<path id="&lt;Compound Path&gt;" fill-rule="evenodd" class="s32" d="m250.2 512.6q-1.1 2.7-2.8 5l4.3 4.1c-2.7 3.3-6.2 6-10.2 7.8l-2.9-5.1q-2.6 1.1-5.6 1.5l4.6 3.2-4.5 2.6q-3.1 0.3-6.4-0.1-3.2-0.4-6.2-1.5l1.6-5.6q-2.7-1.2-5-2.9l0.3 1.6-4.4 2.6c-3.3-2.7-6-6.2-7.8-10.1l4.5-2.6 0.6-0.3q-1.1-2.6-1.5-5.5l-5.8 0.1q-0.4-3.2 0.1-6.4 0.4-3.3 1.5-6.3l4.4-2.6 1.2 4.2q1.2-2.7 2.9-5l-4.2-4c2.7-3.4 6.2-6.1 10.1-7.8l2.9 5.1q2.6-1.2 5.5-1.5l-0.1-5.9 4.4-2.6c0 0 0.8 2.5 2 2.7q3.3 0.4 6.3 1.6l-1.6 5.6q2.7 1.1 5 2.8l4-4.2 4.4-2.6c0 0 1.7 9 3.4 12.7l-5.1 2.9q1.1 2.6 1.5 5.5l5.9-0.1q0.3 3.2-0.1 6.5c-0.2 1.3 2.9 3.6 2.9 3.6l-4.5 2.6zm-6.9-6.5c1-7.2-4.1-13.8-11.4-14.8-7.2-0.9-13.8 4.2-14.7 11.5-1 7.2 4.1 13.8 11.4 14.7 7.2 1 13.8-4.1 14.7-11.4z"/>
					<path id="&lt;Compound Path&gt;" fill-rule="evenodd" class="s28" d="m254.6 510q-1.1 2.7-2.8 5l4.3 4.1c-2.7 3.3-6.2 6-10.1 7.7l-3-5q-2.6 1.1-5.5 1.5l0.1 5.8q-3.2 0.3-6.5-0.1-3.2-0.4-6.2-1.5l1.6-5.7q-2.7-1.1-5-2.8l-4.1 4.2c-3.3-2.7-6-6.2-7.7-10.1l5-2.9q-1.1-2.6-1.5-5.5l-5.8 0.1q-0.3-3.2 0.1-6.4 0.4-3.3 1.5-6.3l5.6 1.6q1.2-2.7 2.9-5l-4.2-4c2.7-3.4 6.2-6.1 10.1-7.8l2.9 5.1q2.6-1.2 5.5-1.5l-0.1-5.9q3.2-0.3 6.4 0.1 3.3 0.4 6.3 1.5l-1.6 5.7q2.7 1.1 5 2.8l4-4.2c3.4 2.7 6.1 6.2 7.8 10.1l-5.1 2.9q1.2 2.6 1.5 5.5l5.9-0.1q0.3 3.2-0.1 6.5-0.4 3.2-1.5 6.2zm-6.9-6.5c0.9-7.2-4.2-13.8-11.5-14.8-7.2-0.9-13.8 4.2-14.7 11.4-1 7.3 4.1 13.9 11.4 14.8 7.2 1 13.8-4.2 14.8-11.4z"/>
					<path id="&lt;Path&gt;" class="s29" d="m203 507.4l4.4-2.6 5.8-0.1-4.4 2.6z"/>
					<path id="&lt;Path&gt;" class="s29" d="m208.9 487.3l4.4-2.6 4.2 4-4.4 2.6z"/>
					<path id="&lt;Path&gt;" class="s30" d="m222.1 524.5l4.4-2.7-1.6 5.7-4.4 2.6z"/>
					<path id="&lt;Path&gt;" class="s30" d="m238.6 524.4l4.4-2.6 3 5-4.5 2.7z"/>
				</g>
			</g>
			<g id="&lt;Group&gt;">
				<path id="&lt;Compound Path&gt;" fill-rule="evenodd" class="s33" d="m715.3 701.7c0.1 2.6-0.2 5.3-0.8 7.8l7.5 2.6c-1.5 5.7-4.3 11-8.3 15.5l-6.4-4.8c-1.7 1.9-3.8 3.5-6.1 4.9l7.5 1.6-4.1 5.7c-2.5 1.4-5.2 2.6-8.1 3.4-2.8 0.9-5.7 1.4-8.6 1.5l-1.2-7.9c-2.6 0.1-5.2-0.2-7.8-0.8l1.4 1.8-4.1 5.7c-5.7-1.5-11-4.3-15.3-8.3l4-5.7 0.7-0.7c-1.9-1.7-3.5-3.8-4.9-6.1l-7.3 3.4c-1.4-2.5-2.6-5.2-3.4-8.1-0.9-2.8-1.4-5.7-1.5-8.6l4-5.7 3.9 4.5c-0.1-2.6 0.2-5.2 0.8-7.8l-7.5-2.7c1.5-5.7 4.4-11 8.3-15.3l6.4 4.7c1.8-1.9 3.8-3.5 6.1-4.9l-3.4-7.3 4.1-5.7c0 0 2.3 2.8 4 2.3 2.9-0.9 5.8-1.4 8.6-1.5l1.2 7.9c2.6-0.1 5.3 0.2 7.8 0.8l2.7-7.5 4.1-5.7c0 0 7.1 10.3 11.3 14l-4.8 6.4c1.9 1.8 3.5 3.8 4.9 6.1l7.3-3.5c1.4 2.5 2.6 5.2 3.4 8.1 0.5 1.7 5.6 2.9 5.6 2.9l-4.1 5.7zm-12.2-4.1c-2.8-9.6-12.8-15-22.4-12.2-9.5 2.9-15 12.9-12.1 22.5 2.8 9.5 12.8 14.9 22.4 12.1 9.5-2.8 15-12.9 12.1-22.4z"/>
				<path id="&lt;Compound Path&gt;" fill-rule="evenodd" class="s28" d="m719.4 695.9c0.1 2.6-0.2 5.3-0.8 7.8l7.5 2.7c-1.5 5.7-4.4 11-8.3 15.4l-6.4-4.7c-1.8 1.9-3.8 3.5-6.1 4.9l3.4 7.3c-2.5 1.4-5.2 2.6-8.1 3.4-2.9 0.9-5.8 1.4-8.6 1.5l-1.2-7.9c-2.6 0.1-5.3-0.2-7.8-0.8l-2.7 7.5c-5.7-1.5-11-4.3-15.4-8.3l4.8-6.4c-1.9-1.7-3.6-3.8-5-6.1l-7.2 3.4c-1.4-2.5-2.6-5.2-3.5-8.1-0.8-2.8-1.3-5.7-1.5-8.6l7.9-1.2c0-2.6 0.2-5.2 0.9-7.8l-7.5-2.7c1.5-5.7 4.3-11 8.3-15.3l6.4 4.7c1.7-1.9 3.8-3.5 6.1-4.9l-3.4-7.3c2.5-1.4 5.2-2.6 8-3.4q4.3-1.4 8.7-1.5l1.1 7.9c2.7-0.1 5.3 0.2 7.9 0.8l2.7-7.5c5.7 1.5 10.9 4.4 15.3 8.3l-4.8 6.4c1.9 1.8 3.6 3.8 5 6.1l7.2-3.5c1.5 2.5 2.7 5.2 3.5 8.1 0.9 2.9 1.3 5.8 1.5 8.6zm-12.2-4.1c-2.8-9.6-12.9-15-22.4-12.2-9.6 2.9-15 12.9-12.2 22.5 2.9 9.5 12.9 14.9 22.5 12.1 9.5-2.8 15-13 12.1-22.4z"/>
				<path id="&lt;Path&gt;" class="s29" d="m653.4 721.3l4.1-5.7 7.2-3.4-4 5.7z"/>
				<path id="&lt;Path&gt;" class="s29" d="m649.7 692.9l4.1-5.7 7.5 2.7-4.1 5.7z"/>
				<path id="&lt;Path&gt;" class="s30" d="m686.7 732l4.1-5.7 1.2 7.9-4.1 5.7z"/>
				<path id="&lt;Path&gt;" class="s30" d="m707.3 722.8l4.1-5.7 6.4 4.7-4.1 5.8z"/>
			</g>
			<g id="&lt;Group&gt;">
				<path id="&lt;Path&gt;" class="s34" d="m790.5 139l-8.6 72.9c-0.3 2.9-1.8 5.3-3.9 7-2.1 1.6-18.9 14.8-18.9 14.8l-61.9-21.2c-5.7-0.7-9.9-5.9-9.2-11.7l-5.4-65.7c0 0 16.2-12.9 18.5-14.6 2-1.4 4.6-2.1 7.3-1.8l72.9 8.6c5.8 0.7 9.9 5.9 9.2 11.7z"/>
				<path id="&lt;Path&gt;" class="s35" d="m751.8 235.6l-73-8.6c-5.8-0.7-9.9-5.9-9.2-11.7l8.7-72.9c0.7-5.8 5.9-9.9 11.7-9.2l72.9 8.6c5.7 0.7 9.8 5.9 9.2 11.7l-8.6 72.9c-0.7 5.7-5.9 9.9-11.7 9.2z"/>
				<path id="&lt;Path&gt;" class="s36" d="m736.8 221.8l-40.2-4.6c-8.3-1-14.3-8.6-13.3-16.9l4.8-40.1c1-8.3 8.5-14.3 16.9-13.3l40.1 4.7c8.3 1 14.2 8.6 13.2 16.9l-4.7 40.1c-0.9 8.3-8.5 14.2-16.8 13.2z"/>
				<path id="&lt;Path&gt;" class="s36" d="m739.1 186.5c-1.2 10.1-10.3 17.4-20.5 16.2-10.1-1.1-17.3-10.3-16.1-20.4 1.2-10.2 10.4-17.4 20.5-16.3 10.1 1.2 17.4 10.4 16.1 20.5z"/>
				<path id="&lt;Path&gt;" class="s7" d="m746.2 167.3c-1.8 0-3.3-1.5-3.3-3.3 0-1.8 1.5-3.3 3.3-3.3 1.8 0 3.3 1.5 3.3 3.3 0 1.8-1.5 3.3-3.3 3.3z"/>
			</g>
			<g id="&lt;Group&gt;">
				<path id="&lt;Path&gt;" class="s37" d="m158.3 45.3l79.6-20.2c2.9-0.8 5.8-0.3 8.3 1 2.8 1.5 22.5 13.4 22.5 13.4l3.6 73.5c1.5 6.3-2.2 12.6-8.5 14.2l-65.3 32.6c0 0-20.4-12.2-23-13.7-2.6-1.5-4.6-4.1-5.4-7.2l-20.2-79.3c-1.6-6.3 2.2-12.7 8.4-14.3z"/>
				<path id="&lt;Path&gt;" class="s38" d="m192.6 152.3l-20.1-79.4c-1.6-6.3 2.2-12.7 8.4-14.3l79.5-20.1c6.2-1.6 12.6 2.2 14.2 8.4l20.3 79.5c1.5 6.2-2.3 12.6-8.5 14.2l-79.6 20.2c-6.2 1.6-12.6-2.2-14.2-8.5z"/>
				<g id="&lt;Group&gt;">
					<path id="&lt;Path&gt;" class="s7" d="m194.4 83.3l65.9-16.7 12.5 49.3-65.9 16.8z"/>
					<path id="&lt;Path&gt;" class="s39" d="m206.9 132.7l25.8-36.8 40.1 20"/>
					<path id="&lt;Path&gt;" class="s40" d="m260.3 66.6l-24.8 35.3c-0.6 0.8-1.6 1.1-2.4 0.7l-38.7-19.3"/>
				</g>
			</g>
			<g id="&lt;Group&gt;">
			</g>
			<g id="&lt;Group&gt;">
				<path id="&lt;Path&gt;" class="s41" d="m73.2 610.7l100.1-41.5c3.7-1.5 7.6-1.5 11.1-0.3 4 1.4 32.2 13.3 32.2 13.3l18.5 95.5c3.3 7.9-0.5 16.9-8.4 20.2l-79.1 55.1c0 0-29.2-12-32.8-13.5-3.7-1.6-6.8-4.5-8.4-8.4l-41.5-100.1c-3.3-7.9 0.4-17 8.3-20.3z"/>
				<g id="&lt;Group&gt;">
					<path id="&lt;Path&gt;" class="s42" d="m138.4 744.3l-41.6-100.1c-3.2-7.9 0.5-16.9 8.4-20.2l100.2-41.6c7.9-3.2 17 0.5 20.2 8.4l41.6 100.1c3.3 7.9-0.5 17-8.4 20.2l-100.2 41.6c-7.9 3.3-16.9-0.5-20.2-8.4z"/>
				</g>
				<path id="&lt;Compound Path&gt;" fill-rule="evenodd" class="s28" d="m222.7 653.6c0.6 4.5 3.6 9.2 6.7 14.1 5.4 8.3 5.3 17.4 0.3 25.9-5.1 8.6-12.9 12.9-22.9 12.9-1.7 0-3.3 0.3-4.8 1.1-26.2 13.8-57 0.3-64.4-28.4-0.6-2-1.5-3.6-3-5.1-7.7-7.6-9.7-19.1-5.3-28.9 4.5-9.9 14.4-15.8 25.3-15 2.1 0.2 4-0.1 5.9-1.1 23.4-12.3 52.1-1.3 62.2 24.5zm-30.8 43.4c1.1-0.5 2.8-1.3 4.5-2.2 5.4-3 10.1-6.7 12.6-12.7 4.1-10.5-2.6-21.5-13.8-22.5-2.8-0.2-5.6-0.1-8.5 0.2-5.5 0.6-11 1.9-16.5 1.9-2.5 0-4.9-0.5-5.9-3.1-1.1-2.8 0.3-5.1 2.3-6.7 6.3-4.9 12.6-6.4 18.5-1.1 0.8 0.7 1.7 1.3 2.6 1.8 1.7 1.1 3.5 1 5.3 0.1 4-2 4.9-6.6 1.8-10.3-2.7-3.1-6.2-4.8-10.2-5.1-11.4-0.8-21.2 3.2-29.1 11.5-4.1 4.4-5.5 9.8-3.1 15.7 2.5 6 7.2 8.9 13.6 9.3 4.7 0.4 9.3-0.3 14-1 3.6-0.5 7.1-1.4 10.8-0.9 5.7 0.8 7.9 5.9 4.6 10.6-5.2 7.4-15.6 8.6-22.2 2.5-0.6-0.6-1.3-1.2-2-1.7-2.8-2.2-6.1-2.1-8.6 0.4-2.4 2.2-2.5 5.5-0.3 8.4 3.6 4.8 8.5 7.3 14.5 7.6 5 0.2 9.8-0.8 15.1-2.7z"/>
			</g>
			<g id="&lt;Group&gt;">
				<path id="&lt;Path&gt;" class="s43" d="m614.9 44.5l-27.1 89.5c-1.1 3.5-3.5 6.3-6.5 7.9-3 1.6-27 14.4-27 14.4l-72.7-40.5c-7.1-2.1-11.2-9.6-9-16.6l7.8-83.6c0 0 23.1-12.6 26.4-14.2 2.9-1.3 6.3-1.6 9.6-0.6l89.6 27c7 2.1 11 9.6 8.9 16.7z"/>
				<g id="&lt;Group&gt;">
					<path id="&lt;Path&gt;" class="s7" d="m544.7 157l-89.5-27.1c-7.1-2.1-11.1-9.6-9-16.6l27.2-89.5c2.1-7.1 9.6-11.1 16.6-9l89.6 27.1c7.1 2.1 11.1 9.6 8.9 16.6l-27.1 89.6c-2.1 7-9.6 11-16.7 8.9z"/>
				</g>
				<g id="&lt;Group&gt;">
					<g id="&lt;Group&gt;">
						<path id="&lt;Path&gt;" class="s44" d="m557.8 98.1c-2.8 9.3-12.6 14.5-21.9 11.7-9.3-2.7-14.5-12.5-11.7-21.8 2.8-9.3 12.6-14.6 21.9-11.8 9.3 2.8 14.5 12.6 11.7 21.9z"/>
					</g>
					<g id="&lt;Group&gt;">
						<path id="&lt;Path&gt;" class="s45" d="m510.7 83.9c-2.8 9.3-12.6 14.5-21.9 11.7-9.4-2.8-14.6-12.6-11.8-21.9 2.8-9.3 12.6-14.5 21.9-11.7 9.3 2.8 14.6 12.6 11.8 21.9z"/>
					</g>
				</g>
			</g>
			<g id="&lt;Group&gt;">
				<path id="&lt;Path&gt;" class="s46" d="m663.7 468c-1.5 2.5-4.8 4.2-8.5 4.1-3.8-0.1-7-2.1-8.3-4.8-0.4-0.8-1.7-4.7-1.7-4.7 0 0 5.5-5 10.5-4.8 2.8 0.1 5.3 1.2 6.9 2.9q0.1 0 0.1 0c2.7-7.7 8.2-23.3 8.2-23.3l-28.6-3.9c0 0-8.9 25.4-9 25.6-1.2 3.5-4.6 6.1-9.3 6-3.9-0.2-7.2-2.3-8.4-5.1-0.3-0.7-1.7-4.8-1.7-4.8 0 0 5.6-4.6 10.7-4.4 2.6 0.1 4.9 1 6.5 2.5q0.2 0.1 0.4 0.3c4-11.4 12-34.1 12-34.1l34.1 0.5 1.6 4.6c0 0-9.8 27.9-14.6 41.5q-0.3 1.1-0.9 1.9z"/>
				<path id="&lt;Path&gt;" class="s29" d="m642.3 433.5l-1.6-4.6 30.1 3.3-2.8 4.8z"/>
				<path id="&lt;Path&gt;" class="s7" d="m662 463.4c-1.4 2.5-4.7 4.2-8.5 4.1-5-0.2-8.9-3.5-8.7-7.5 0.1-3.9 4.3-7 9.3-6.8 2.8 0.1 5.3 1.2 6.9 2.9q0 0 0.1 0c2.7-7.7 8.2-23.3 8.2-23.3l-28.6-3.9c0 0-8.9 25.4-9 25.6-1.2 3.5-4.6 6.1-9.3 6-5-0.2-9-3.6-8.9-7.5 0.2-4 4.4-7 9.4-6.8 2.7 0.1 5 1 6.6 2.5q0.2 0.1 0.3 0.3c4-11.4 12-34.1 12-34.1l35.8 5.1c0 0-9.8 27.9-14.6 41.5q-0.4 1.1-1 1.9z"/>
			</g>
			<g id="&lt;Group&gt;">
				<path id="&lt;Path&gt;" class="s47" d="m842.9 539.1l-40.1 85.4c-1.6 3.3-4.4 5.7-7.6 6.9-3.2 1.2-29 10.5-29 10.5l-66.7-51c-6.8-3.2-9.7-11.2-6.5-17.9l20-82.3c0 0 24.9-9.3 28.4-10.3 3.1-0.9 6.5-0.8 9.6 0.7l85.5 40.1c6.7 3.2 9.6 11.2 6.4 17.9z"/>
				<path id="&lt;Path&gt;" class="s48" d="m756.6 641.2l-85.5-40.1c-6.7-3.1-9.6-11.2-6.5-17.9l40.2-85.3c3.1-6.8 11.2-9.7 17.9-6.6l85.4 40.1c6.8 3.2 9.7 11.2 6.5 17.9l-40.1 85.4c-3.2 6.7-11.2 9.6-17.9 6.5z"/>
				<path id="&lt;Compound Path&gt;" fill-rule="evenodd" class="s7" d="m787.7 564.4l-19.1 40.6c-1.6 3.6-5.9 5.2-9.5 3.5l-37.7-17.7-25.2 2.1c-0.7 0.1-1.1-0.7-0.7-1.2l6.7-9.8-7.5-3.6c-3.6-1.7-5.2-5.9-3.5-9.5l19.1-40.7c1.7-3.5 6-5.1 9.6-3.5l64.4 30.2c3.6 1.7 5.1 6 3.4 9.6zm-61.8-2.3c1.4-2.9 0.1-6.3-2.7-7.6-2.8-1.3-6.2 0-7.6 2.8-1.3 2.9-0.1 6.3 2.8 7.5 2.8 1.3 6.2 0.1 7.5-2.7zm17.9 8.4c1.4-2.8 0.2-6.2-2.7-7.6-2.8-1.3-6.2-0.1-7.5 2.8-1.4 2.8-0.2 6.2 2.7 7.5 2.8 1.4 6.2 0.1 7.5-2.7zm18.1 8.4c1.3-2.8 0.1-6.2-2.8-7.5-2.8-1.4-6.2-0.1-7.5 2.7-1.3 2.8-0.1 6.2 2.7 7.5 2.9 1.4 6.2 0.2 7.6-2.7z"/>
			</g>
			<g id="&lt;Group&gt;">
				<g id="&lt;Group&gt;">
					<path id="&lt;Path&gt;" class="s49" d="m92.4 444.3l-12.2 44.9c-0.8 3.2-4.1 5.1-7.3 4.2l-44.9-12.2c-6.9-1.8-12.8-6.8-15.7-14.2-2.3-6.3-3.9-15-3.9-15 0 0 8.5-9 10.8-10.9 8.5-7 19.8-6.8 28-1.1-0.8-9.9 4.7-19.8 15.1-23.6 9.1-3.3 26.8 2.6 26.8 2.6 0 0 5.2 18.5 3.3 25.3z"/>
				</g>
				<g id="&lt;Group&gt;">
					<path id="&lt;Path&gt;" class="s38" d="m89.4 432l-12.3 44.9c-0.8 3.2-4.1 5.1-7.3 4.2l-44.9-12.2c-6.8-1.9-12.8-6.8-15.6-14.2-3.5-9.1-0.7-19.7 6.8-25.9 8.5-7 19.8-6.8 28-1.2-0.8-9.8 4.8-19.7 15.1-23.5 9.1-3.3 19.7-0.3 25.8 7.2 5 6.2 6.2 13.9 4.4 20.7z"/>
				</g>
			</g>
			<g id="&lt;Group&gt;">
				<g id="&lt;Group&gt;">
					<path id="&lt;Path&gt;" class="s50" d="m650.8 277.3c0 0 12.2-3.4 18.2-0.9 7 2.9 10.5 9.8 9.7 16.4 5.7-3.5 13.3-3.3 18.9 1.7 1.5 1.3 7 7.7 7 7.7 0 0-1.3 5.9-3.2 10-2.1 5-6.3 8.1-11 9.2l-30.8 6.9c-2.2 0.5-4.4-0.9-4.9-3.1l-7-30.8c-1-4.7 3.1-17.1 3.1-17.1z"/>
				</g>
				<g id="&lt;Group&gt;">
					<path id="&lt;Path&gt;" class="s38" d="m653.8 272.2c4.3-4.9 11.6-6.6 17.7-4 7 2.9 10.5 9.7 9.7 16.4 5.6-3.6 13.3-3.4 18.9 1.6 4.9 4.4 6.4 11.8 3.8 17.8-2.1 4.9-6.3 8.1-11 9.1l-30.8 6.9c-2.2 0.5-4.4-0.9-4.9-3.1l-7-30.8c-1-4.7 0.1-9.8 3.6-13.9z"/>
				</g>
			</g>
			<g id="&lt;Group&gt;">
				<path id="&lt;Path&gt;" class="s51" d="m898.3 358.2l-55.8 85.5c-2.2 3.4-5.5 5.5-9.2 6.3-3.6 0.8-32.6 6.9-32.6 6.9l-63.9-64.7c-6.8-4.4-8.7-13.4-4.3-20.1l33.7-85.2c0 0 28.1-6.2 32-6.8 3.4-0.5 7.1 0.2 10.2 2.2l85.6 55.7c6.7 4.4 8.6 13.4 4.3 20.2z"/>
				<g id="&lt;Group&gt;">
					<path id="&lt;Path&gt;" class="s52" d="m790.5 454.7l-85.6-55.6c-6.8-4.4-8.7-13.5-4.3-20.2l55.7-85.6c4.4-6.8 13.5-8.7 20.2-4.3l85.6 55.8c6.7 4.3 8.6 13.4 4.3 20.1l-55.8 85.5c-4.4 6.8-13.4 8.7-20.1 4.3z"/>
				</g>
				<g id="&lt;Group&gt;">
					<path id="&lt;Compound Path&gt;" fill-rule="evenodd" class="s53" d="m744.7 340.7c4.7-7.1 9.4-14.2 14-21.4 1-1.6 1.6-1.7 3.2-0.7 8.6 5.7 17.2 11.3 25.9 17 2.8 1.8 5.4 4 7.1 6.9 3.6 6.4 2.7 13.6-2.3 19.2q-0.6 0.8-1.2 1.5c-3.2 2.6-6.9 3.6-11.1 2.2 0.9 1.2 1.8 2 2.4 3.1 2.5 3.9 1.7 7.9 0.1 11.9-1.1 3-2.9 5.7-5.2 8-5.6 5.8-13.5 6.8-21.4 2.9-2.7-1.2-5-2.9-7.4-4.5-7.6-4.8-15-9.7-22.4-14.4-1.3-0.8-1.4-1.4-0.6-2.7 6.4-9.6 12.6-19.3 18.9-29zm13.9 5.9c-0.4 0.6 0.1 0.8 0.4 1q3.9 2.5 7.8 4.9c1.9 1.6 4 2.9 6.1 4.1 1.4 1 2.8 1.2 4.3 0.9 3.4-0.8 7-6.3 6.2-9.7-0.3-1.1-0.9-2-1.8-2.6q-7.3-4.7-14.5-9.4c-0.8-0.5-1.2-0.6-1.7 0.3-2.2 3.5-4.5 7-6.8 10.5zm-6.9 28.5c2.4 1.6 4.8 3.2 7.2 4.6 2.2 1.3 4.6 1.8 6.9 0.4 1.1-0.6 2-1.7 2.9-2.6 3.6-3.3 3.6-9.3-0.3-11.9-4.8-3.3-9.7-6.3-14.5-9.5-0.9-0.6-1.3-0.4-1.8 0.4q-3.9 6.1-7.9 12.1c-0.6 0.9-0.5 1.4 0.4 1.9 2.4 1.5 4.8 3.1 7.1 4.6z"/>
					<path id="&lt;Compound Path&gt;" fill-rule="evenodd" class="s53" d="m803.1 370.8c8.2-0.3 14.9 2.9 20.7 8.4 3.9 3.7 5.8 8.4 6 13.7-0.2 6-2.5 11.3-5.8 16.3-1.1 1.6-1.8 1.7-3.4 0.6-8.1-5.4-16.4-10.7-24.5-16-1.3-0.9-1.8-0.7-2.4 0.6-2.2 4.6-1.5 8.9 2.3 12.4q3.2 2.9 7.4 3.9c2.4 0.5 4.5 0.1 6.2-1.6 0.8-0.8 1.2-0.7 2-0.2 2.3 1.6 4.6 3.2 7.1 4.6 1.2 0.7 1 1.3 0.3 2.2-3.8 5-8.9 6.9-15 5.9-6.7-1.1-12.1-4.7-17.2-9.1-4.4-3.8-6.5-8.7-6.7-14.3-0.4-6.4 2-12 5.8-17.1 3.4-4.3 7.8-7.3 12.8-9.4 0.7-0.4 1.6-0.4 2.4-0.5v-0.2q0.3 0.3 0.6 0c0.2 0.1 0.4 0.1 0.5-0.1q0.4 0 0.9-0.1zm-1.4 0.2q-0.1 0-0.1-0.1v-0.1l0.1 0.1q0 0 0 0.1zm0.5-0.1q0 0-0.1 0l0.1-0.1h0.1q-0.1 0-0.1 0.1zm5.9 20.4c2.6 1.7 5.2 3.3 7.7 5 0.9 0.6 1.3 0.5 1.8-0.4 2-3.8 1.3-8.4-1.9-11.3-4.6-4.1-10.6-4.1-15.3-0.2-0.9 0.9-1 1.3 0.1 2 2.6 1.5 5.1 3.2 7.6 4.9zm-7-20.3z"/>
					<path id="&lt;Path&gt;" class="s53" d="m821 371.1c-3.3-2.2-6.5-4.3-9.8-6.4-0.9-0.6-1.1-1.1-0.4-2 0.9-1.3 1.9-2.7 2.7-4.2 0.6-1.1 1.2-0.9 2.1-0.3q9.8 6.4 19.6 12.8c1 0.6 1.2 1.1 0.5 2.1q-1.5 2-2.7 4.1c-0.6 1-1.1 1-2 0.4-3.3-2.2-6.6-4.4-10-6.5z"/>
				</g>
			</g>
			<g id="&lt;Group&gt;">
				<path id="&lt;Compound Path&gt;" fill-rule="evenodd" class="s54" d="m89.8 193.5c7.1 6 11.5 13.4 12.7 22.8 0.9 7.2 1.1 14.3 0.8 21.6-0.5 11.9-0.1 40.5-0.1 40.5l-5.7 9.8c-0.4 0.5-0.9 1.1-1.6 0.8-14.2-7.1-28.1-14.7-41.4-23.5-6.2-4.1-12.3-8.5-17.8-13.6-4.9-4.5-8.7-9.6-10.7-16.1-3.1-9.9-2.2-20.3 2-29.1 3.7-7.7 11.6-19.3 11.6-19.3 0 0 38.1-4.3 50.2 6.1zm-8.7 21.6c-4.8-9.5-16.5-13.3-26-8.5-9.3 4.8-13.1 16.4-8.2 25.9 4.7 9.3 16.5 13.2 25.8 8.4 9.4-4.8 13.2-16.3 8.4-25.8z"/>
				<path id="&lt;Compound Path&gt;" fill-rule="evenodd" class="s55" d="m95.8 182.8c7 6 11.5 13.4 12.7 22.7 0.9 7.2 1 14.4 0.8 21.6-0.7 16.9-2.9 33.7-5.9 50.4-0.2 1.4-0.2 1.4-1.5 0.8-14.3-7.1-28.2-14.8-41.4-23.5-6.3-4.2-12.3-8.6-17.8-13.6-4.9-4.5-8.8-9.7-10.8-16.1-5.8-18.7 2.5-38.7 20.1-47.6 14.3-7.2 31.6-5.2 43.8 5.3zm-8.7 21.6c-4.8-9.5-16.6-13.3-26-8.6-9.4 4.8-13.1 16.5-8.3 26 4.8 9.3 16.5 13.1 25.8 8.4 9.5-4.8 13.3-16.4 8.5-25.8z"/>
			</g>
		</g>
	</g>
	<g id="DESIGNED BY FREEPIK">
		<g id="&lt;Group&gt;">
			<g id="&lt;Group&gt;">
				<g id="&lt;Group&gt;">
				</g>
			</g>
			<g id="&lt;Group&gt;">
			</g>
		</g>
	</g>
</svg>